<?xml version="1.0" encoding="UTF-8"?>
<svg id="Layer_1" xmlns="http://www.w3.org/2000/svg" version="1.1" viewBox="0 0 432 140.46">
  <!-- Generator: Adobe Illustrator 30.2.1, SVG Export Plug-In . SVG Version: 2.1.1 Build 1)  -->
  <defs>
    <style>
      .st0 {
        fill: #cb3433;
      }

      .st1 {
        fill: #cc3433;
      }
    </style>
  </defs>
  <g id="QRn0Hg">
    <g>
      <path class="st0" d="M42.91,83.31c-.78-1.08-1.48-1.99-2.12-2.94-.71-1.08-1.36-2.19-2.03-3.3-.08-.13-.12-.29-.16-.45-.23-.81,0-1.14.84-1.14,1.61-.01,3,.51,4.11,1.72.46.5.9,1.01,1.39,1.48.36.34.48.71.4,1.17-.16.9-.3,1.8-.5,2.69-.1.46-.03.63.46.59,2.66-.23,5.31-.44,7.97-.68.22-.02.51-.17.64-.35,1.44-2,2.85-4.04,3.63-6.4.32-.97.38-2.02.52-3.04.07-.5-.34-.46-.65-.42-1.2.15-2.41.27-3.61.48-3.52.62-7.04,1.28-10.56,1.91-.37.07-.75.07-1.13.11-.64.07-1.07-.24-1.36-.77-.99-1.81-1.97-3.63-2.97-5.44-.53-.96-1.1-1.89-1.63-2.84-.14-.26-.27-.54-.31-.83-.11-.72.24-1.11.96-1.06.81.05,1.63.12,2.43.27,1.71.31,3.41.14,5.11-.08,3.41-.45,6.83-.85,10.23-1.35.93-.14,1.85-.47,2.73-.83,1.4-.56,2.77-.68,4.15,0,1.31.65,2.64,1.29,3.92,2,.77.43.79,1.17.05,1.67-1.09.73-2.23,1.37-3.33,2.09-.6.39-1.16.84-1.7,1.31-.13.11-.19.39-.16.57.05.24.2.47.34.69.48.78.5.79-.11,1.48-.26.3-.09.47.14.62.56.38,1.13.74,1.68,1.13.58.42,1.16.84,1.7,1.3.85.71.74,1.47-.25,1.95-2.06,1.01-4.04,2.14-5.66,3.8-.43.44-.8.95-1.2,1.43l.1.19c.5-.05,1-.09,1.49-.16,3.82-.53,7.63-1.11,11.46-1.58,2.11-.25,4.24-.41,6.36-.42,2.13,0,4.25,1.79,4.83,3.84.21.74-.22,1.41-1.11,1.49-.9.08-1.84.07-2.73-.07-4.59-.69-9.2-.77-13.82-.62-3.22.1-6.45.21-9.66.5-4.04.37-8.07.88-12.09,1.42-2.56.34-5.11.8-7.64,1.31-2.4.48-4.81.95-7.13,1.69-2.57.82-4.58.05-6.46-1.6-.31-.28-.63-.56-.9-.87-.16-.18-.38-.49-.32-.63.09-.2.39-.39.63-.43,1.26-.19,2.52-.36,3.78-.49,5.42-.56,10.85-1.09,16.27-1.65.94-.1,1.87-.27,2.98-.44ZM44.96,71.7c1.31-.14,3.17-.24,4.99-.56,1.93-.34,3.85-.8,5.73-1.37,1.7-.51,2.53-1.98,2.33-3.7-.14-1.19-.33-1.45-1.55-1.34-2.27.21-4.54.48-6.79.85-2.61.43-5.19,1-7.79,1.47-.47.09-.63.28-.52.72.2.77.34,1.56.63,2.29.75,1.88.28,1.64,2.98,1.62Z"/>
      <path class="st0" d="M48.68,35.92c1.01.2,2.04.32,3.02.63,1.45.45,1.81,1.1,1.57,2.62-.14.86-.38,1.71-.49,2.58-.15,1.16-.23,2.33-.34,3.5-.05.5.14.61.63.5,2.88-.68,5.76-1.4,8.66-1.98,1.82-.36,3.62-.1,5.15,1.07.4.3.71.75.97,1.18.28.45-.08,1-.71,1.11-.8.15-1.61.27-2.42.37-3.06.41-6.11.79-9.17,1.21-.91.12-1.81.29-2.7.49-.2.05-.47.34-.48.54-.12,1.55-.18,3.1-.27,4.65-.03.55.2.73.76.63,1.84-.33,3.69-.61,5.53-.93,1.62-.29,2.63-.07,3.79,1.66.31.47.22.91-.25,1.1-.74.3-1.53.57-2.31.67-4.83.63-9.67,1.22-14.51,1.82-.97.12-1.93.25-2.9.33-1.2.11-2.28-.28-3.23-1-.25-.19-.5-.64-.43-.88.06-.23.53-.43.85-.48,2.78-.47,5.57-.9,8.37-1.33.47-.07.62-.29.62-.75,0-1.47.06-2.94.08-4.42,0-.77-.04-.81-.84-.7-1.77.26-3.53.57-5.31.79-2.47.3-4.95.64-7.41,0-.68-.18-1.34-.41-1.71-1.08-.23-.43-.19-.8.34-.92,1.03-.23,2.06-.46,3.09-.61,3.48-.51,6.98-.94,10.45-1.49,1.61-.26,1.43.08,1.36-1.57-.07-1.64-.19-3.3-.5-4.91-.18-.97-.76-1.87-1.16-2.8-.36-.84-.15-1.22.74-1.39.37-.07.75-.09,1.12-.13,0-.02.02-.05.03-.07Z"/>
      <path class="st0" d="M41.4,91.87c3.53.11,7.06-.1,10.53-.69,2.36-.4,4.71-.99,6.99-1.75,1.44-.48,2.61-.33,3.84.42,1.62.99,3.15,2.07,4.4,3.52.7.81.67,1.35-.23,1.95-1.56,1.05-2.98,2.25-4.16,3.72-.33.41-.47.79-.24,1.3.26.58.46,1.19.67,1.79.31.89.03,1.51-.86,1.77-.47.14-.97.21-1.46.24-4.59.27-9.18.49-13.77.78-1.19.07-2.36.32-3.54.49-.43.06-.71.24-.76.75-.05.53-.18,1.06-.36,1.56-.22.61-.59.76-1.18.49-1.12-.51-1.99-1.3-2.19-2.56-.25-1.53-.49-3.07-.54-4.62-.08-2.32-.85-4.39-1.94-6.38-.23-.42-.43-.85-.62-1.29-.45-1.05.05-1.79,1.2-1.73,1.41.06,2.82.16,4.23.24ZM45.47,101.89c3.15-.23,6.33,0,9.45-.71,1.97-.45,3.66-1.26,4.15-3.49.27-1.23.44-2.47.16-3.72-.13-.57-.47-.87-1.1-.87-4.18.01-8.37-.06-12.5.69-1.2.22-2.35.7-3.52,1.07-.38.12-.49.42-.43.81.09.61.17,1.22.26,1.83.17,1.24.34,2.48.5,3.72.06.47.25.7.77.67.75-.04,1.51-.01,2.27-.01Z"/>
    </g>
  </g>
  <path class="st1" d="M67.49,126.67c-8.9,0-17.81,0-26.71,0-1.35,0-2.71,0-4.06,0-3.35-.02-6.63-.69-9.67-2.13-7.26-3.43-12.28-10.55-13.14-18.52-.28-2.59-.14-5.25-.14-7.85v-46.12c0-3.2-.11-6.38.63-9.52,1.82-7.73,7.74-14.3,15.44-16.46,3.87-1.08,7.98-.79,11.96-.79,5.68,0,11.35,0,17.03,0,3.71,0,7.69-.33,11.36.31,7.94,1.39,14.72,7.07,17.54,14.62,1.36,3.64,1.49,7.32,1.49,11.13v45.86c0,2.26.01,4.52,0,6.78-.05,7.88-3.99,15.39-10.74,19.56-3.3,2.04-7.11,3.1-10.98,3.13-.6,0-1.62.19-1.91.81-.27.59.23.94.81.93,8.33-.06,16.32-3.92,21.21-10.74,3.23-4.51,4.52-9.73,4.52-15.21v-29.02c0-8.44.02-16.87,0-25.31-.02-7.1-2.96-13.91-8.37-18.57-4.87-4.19-10.9-6.02-17.25-6.02-9.7,0-19.4,0-29.09,0-6.67,0-13.04,2-18.12,6.43-5.34,4.65-8.4,11.44-8.42,18.51-.02,8.51,0,17.03,0,25.54,0,9.6,0,19.21,0,28.81,0,5.44,1.2,10.57,4.35,15.09,4.59,6.6,12.3,10.43,20.29,10.48,9.29.06,18.58,0,27.87,0h3.02c.6,0,1.62-.19,1.91-.81.27-.59-.23-.93-.81-.93Z"/>
  <path class="st1" d="M105.08,29.95c.49,29.5.49,62.59,0,92.09-.49-29.5-.49-62.59,0-92.09h0Z"/>
  <g>
    <path class="st1" d="M158.51,101.31c1.6,2.93,3.28,4.39,5.05,4.39v.17h-4.88c-1.16,0-2.3-.23-3.44-.7-1.13-.47-2.14-1.53-3.02-3.19l-17.55-32.95-10.93,12.5v17.96c0,2.15-.46,3.75-1.37,4.8-.91,1.05-2.66,1.57-5.26,1.57h-3.06v-.17c1.21,0,2.1-.25,2.65-.75.55-.5.9-1.13,1.03-1.9.14-.77.21-1.93.21-3.48v-54.47c0-1.77-.29-3.09-.87-3.97-.58-.88-1.59-1.32-3.02-1.32v-.17h13.58v.17c-1.44,0-2.44.44-3.02,1.32-.58.88-.87,2.21-.87,3.97v33.86l29.72-34.11c1.77-2.1,2.65-3.5,2.65-4.22,0-.55-.41-.83-1.24-.83v-.17h8.28v.17c-1.1.11-2.02.3-2.73.58-.72.28-1.44.74-2.15,1.41l-19.54,22.52,19.79,37Z"/>
    <path class="st1" d="M221.26,102.96c.94,1.82,2.23,2.73,3.89,2.73v.17h-12.75v-.17c.88,0,1.52-.15,1.9-.46.39-.3.58-.81.58-1.53,0-.94-.28-2.12-.83-3.56l-4.39-12.75h-29.64l-4.39,12.75-.08.17-.17.58c-.28.77-.41,1.55-.41,2.32,0,.83.21,1.45.62,1.86s.98.62,1.7.62v.17h-8.28v-.17c1.1,0,1.99-.34,2.65-1.03.66-.69,1.24-1.64,1.74-2.86l20.12-57.87c.11-.33.17-.74.17-1.24,0-.94-.35-1.66-1.03-2.15-.69-.5-1.64-.74-2.86-.74v-.17h9.44l22.02,63.33ZM194.85,44.85l-14.24,40.9h28.48l-13.74-39.49-.5-1.41Z"/>
    <path class="st1" d="M239.8,99.48c0,2.15-.46,3.75-1.37,4.8-.91,1.05-2.66,1.57-5.26,1.57h-3.06v-.17c1.21,0,2.1-.25,2.65-.75.55-.5.9-1.13,1.03-1.9.14-.77.21-1.93.21-3.48v-54.47c0-1.77-.29-3.09-.87-3.97-.58-.88-1.59-1.32-3.02-1.32v-.17h9.69v59.85Z"/>
    <path class="st1" d="M287.32,93.69l-3.31,12.17h-37.75l28.48-61.18c.83-1.38,1.9-2.51,3.23-3.39h-22.85c-2.1,0-3.78.44-5.05,1.32-1.27.88-2.26,2.06-2.98,3.52-.72,1.46-1.44,3.35-2.15,5.67h-.17l3.31-12.17h38.25v.17c-.94.06-1.71.3-2.32.74-.61.44-1.16,1.08-1.66,1.9l-29.14,61.76h23.76c2.1,0,3.78-.44,5.05-1.32,1.27-.88,2.26-2.06,2.98-3.52.72-1.46,1.43-3.35,2.15-5.67h.17Z"/>
    <path class="st1" d="M360.25,93.69l-3.31,12.17h-35.68v-.17c1.21,0,2.1-.25,2.65-.75.55-.5.9-1.13,1.03-1.9.14-.77.21-1.93.21-3.48v-54.47c0-1.77-.29-3.09-.87-3.97-.58-.88-1.59-1.32-3.02-1.32v-.17h9.69v59.85c0,2.21-.44,3.78-1.32,4.72h20.28c2.1,0,3.78-.44,5.05-1.32,1.27-.88,2.26-2.06,2.98-3.52.72-1.46,1.43-3.35,2.15-5.67h.17Z"/>
    <path class="st1" d="M415.8,102.96c.94,1.82,2.24,2.73,3.89,2.73v.17h-12.75v-.17c.88,0,1.52-.15,1.9-.46.39-.3.58-.81.58-1.53,0-.94-.28-2.12-.83-3.56l-4.39-12.75h-29.64l-4.39,12.75-.08.17-.17.58c-.28.77-.41,1.55-.41,2.32,0,.83.21,1.45.62,1.86.41.41.98.62,1.7.62v.17h-8.28v-.17c1.1,0,1.99-.34,2.65-1.03.66-.69,1.24-1.64,1.74-2.86l20.12-57.87c.11-.33.17-.74.17-1.24,0-.94-.35-1.66-1.03-2.15-.69-.5-1.64-.74-2.86-.74v-.17h9.44l22.02,63.33ZM389.39,44.85l-14.24,40.9h28.48l-13.74-39.49-.5-1.41Z"/>
  </g>
</svg>