<?xml version="1.0" encoding="UTF-8"?>
<svg id="Layer_1" xmlns="http://www.w3.org/2000/svg" version="1.1" viewBox="0 0 256.86 140.46">
  <!-- Generator: Adobe Illustrator 30.2.1, SVG Export Plug-In . SVG Version: 2.1.1 Build 1)  -->
  <defs>
    <style>
      .st0 {
        fill: #fff;
      }
    </style>
  </defs>
  <g id="QRn0Hg">
    <g>
      <path class="st0" d="M51.47,79.25c-.88-1.11-1.67-2.05-2.38-3.04-.8-1.11-1.54-2.26-2.29-3.4-.09-.14-.14-.3-.19-.46-.26-.84,0-1.17.95-1.18,1.82-.01,3.38.53,4.63,1.78.51.51,1.01,1.04,1.56,1.52.4.35.54.73.45,1.21-.18.93-.33,1.86-.56,2.78-.12.47-.03.65.52.6,2.99-.24,5.99-.45,8.98-.7.25-.02.57-.18.72-.36,1.63-2.07,3.21-4.17,4.09-6.61.36-1,.43-2.09.59-3.14.08-.52-.38-.47-.74-.44-1.36.15-2.72.28-4.06.49-3.97.64-7.93,1.32-11.9,1.98-.42.07-.85.07-1.27.11-.72.07-1.21-.25-1.53-.79-1.12-1.87-2.22-3.75-3.35-5.62-.59-.99-1.23-1.95-1.83-2.94-.16-.26-.3-.56-.35-.86-.12-.74.27-1.15,1.08-1.1.91.05,1.83.13,2.73.28,1.93.32,3.84.15,5.76-.08,3.84-.46,7.69-.88,11.53-1.39,1.05-.14,2.08-.49,3.07-.86,1.58-.58,3.12-.71,4.68,0,1.48.67,2.97,1.33,4.41,2.06.87.44.89,1.21.06,1.72-1.22.76-2.52,1.41-3.75,2.15-.67.4-1.3.87-1.91,1.35-.15.11-.22.41-.18.59.05.25.23.49.38.71.55.8.56.81-.12,1.53-.3.31-.1.48.15.64.63.4,1.28.76,1.9,1.16.66.43,1.3.87,1.92,1.34.96.73.83,1.51-.28,2.01-2.32,1.04-4.56,2.21-6.38,3.92-.49.46-.9.98-1.35,1.48l.11.2c.56-.05,1.12-.09,1.68-.16,4.31-.55,8.6-1.15,12.92-1.63,2.37-.26,4.78-.42,7.17-.43,2.4,0,4.78,1.85,5.45,3.96.24.76-.25,1.46-1.25,1.54-1.02.08-2.07.07-3.08-.07-5.17-.71-10.36-.8-15.57-.64-3.63.11-7.27.22-10.88.52-4.55.38-9.09.91-13.62,1.47-2.89.36-5.76.83-8.61,1.35-2.7.5-5.42.98-8.04,1.74-2.89.84-5.17.06-7.28-1.65-.35-.28-.71-.57-1.01-.9-.18-.18-.43-.5-.36-.65.1-.21.44-.4.71-.44,1.42-.2,2.84-.38,4.26-.51,6.11-.58,12.22-1.13,18.33-1.71,1.06-.1,2.11-.28,3.36-.46ZM53.79,67.27c1.48-.14,3.57-.25,5.62-.58,2.18-.35,4.34-.83,6.45-1.41,1.91-.53,2.86-2.05,2.63-3.82-.16-1.23-.38-1.5-1.75-1.38-2.56.22-5.12.5-7.65.88-2.94.44-5.85,1.03-8.77,1.52-.53.09-.71.29-.59.74.22.79.38,1.61.71,2.37.85,1.94.31,1.69,3.36,1.67Z"/>
      <path class="st0" d="M57.97,30.32c1.14.21,2.3.33,3.4.65,1.64.47,2.03,1.14,1.76,2.7-.15.89-.42,1.77-.55,2.66-.17,1.2-.25,2.41-.38,3.61-.06.52.16.63.71.52,3.25-.7,6.49-1.45,9.76-2.04,2.05-.38,4.08-.1,5.81,1.1.45.31.8.77,1.09,1.22.31.47-.09,1.03-.8,1.15-.9.15-1.81.28-2.72.39-3.44.42-6.89.82-10.33,1.25-1.02.13-2.04.29-3.04.51-.22.05-.53.35-.55.56-.13,1.6-.21,3.2-.3,4.8-.03.56.22.75.85.65,2.07-.34,4.16-.63,6.23-.96,1.82-.29,2.96-.07,4.26,1.72.35.48.25.94-.28,1.13-.84.31-1.72.59-2.61.69-5.44.66-10.89,1.26-16.34,1.88-1.09.12-2.18.25-3.27.34-1.36.11-2.57-.29-3.64-1.03-.28-.19-.56-.66-.49-.91.07-.23.6-.44.95-.5,3.14-.48,6.28-.93,9.43-1.37.53-.07.7-.3.7-.78,0-1.52.07-3.04.09-4.56,0-.8-.05-.84-.94-.72-2,.26-3.98.59-5.98.81-2.78.31-5.57.66-8.35,0-.76-.18-1.51-.42-1.92-1.12-.26-.45-.21-.83.39-.95,1.16-.24,2.32-.47,3.49-.63,3.92-.53,7.86-.97,11.78-1.54,1.81-.27,1.61.08,1.53-1.62-.07-1.7-.22-3.41-.56-5.07-.21-1-.86-1.93-1.3-2.89-.4-.87-.17-1.26.84-1.43.42-.07.84-.09,1.26-.13,0-.02.02-.05.03-.07Z"/>
      <path class="st0" d="M49.77,88.09c3.98.11,7.95-.1,11.87-.71,2.66-.42,5.31-1.02,7.87-1.81,1.62-.5,2.95-.34,4.32.43,1.82,1.02,3.55,2.14,4.96,3.64.79.84.75,1.39-.26,2.01-1.76,1.08-3.36,2.32-4.69,3.84-.37.42-.53.82-.27,1.35.29.6.52,1.23.75,1.85.35.92.03,1.55-.97,1.82-.53.14-1.1.22-1.65.25-5.17.27-10.34.51-15.51.81-1.34.08-2.66.33-3.99.5-.49.06-.8.25-.85.78-.06.55-.2,1.1-.4,1.61-.24.63-.67.79-1.33.51-1.26-.52-2.24-1.34-2.47-2.64-.28-1.58-.55-3.17-.61-4.77-.09-2.4-.96-4.53-2.19-6.59-.26-.43-.48-.88-.69-1.33-.51-1.09.05-1.84,1.35-1.79,1.59.07,3.18.16,4.77.25ZM54.36,98.43c3.55-.24,7.14,0,10.64-.74,2.22-.47,4.12-1.3,4.67-3.61.3-1.27.5-2.55.18-3.84-.14-.59-.53-.9-1.24-.89-4.71.01-9.43-.06-14.08.72-1.35.23-2.65.72-3.97,1.11-.42.13-.56.43-.49.83.11.63.2,1.26.29,1.89.19,1.28.39,2.56.56,3.85.07.49.29.72.87.69.85-.04,1.7-.01,2.56-.01Z"/>
    </g>
  </g>
  <path class="st0" d="M81.84,124.54h-29.27c-3.82,0-7.64.02-11.46,0-8.38-.04-16.25-4.61-20.37-11.94-1.99-3.55-3-7.55-3.02-11.62,0-.81,0-1.61,0-2.42,0-4.64,0-9.27,0-13.91v-36.06c0-2.96-.18-6.01.12-8.96.92-9.02,7.2-17.09,15.92-19.81,4.16-1.3,8.53-1.01,12.82-1.01,6.12,0,12.25,0,18.37,0h15.03c6.66,0,12.88,2.05,17.67,6.84s6.9,10.91,6.9,17.47c0,3.78,0,7.57,0,11.35,0,12.29,0,24.58,0,36.87,0,3.25,0,6.51,0,9.76-.01,7.65-3.61,14.95-9.91,19.37-3.76,2.64-8.22,4.01-12.8,4.04-.51,0-1.55.77-.58.77,8.85-.06,17.3-4.74,21.66-12.51,2.03-3.62,3.05-7.66,3.08-11.8,0-.81,0-1.62,0-2.43,0-11.45,0-22.91,0-34.36,0-5.57,0-11.14,0-16.71,0-3.53.21-7.16-.55-10.63-1.91-8.65-8.67-15.65-17.2-17.96-4.2-1.14-8.63-.85-12.93-.85-11.18,0-22.36,0-33.54,0-7,0-13.69,2.41-18.64,7.47-4.66,4.76-6.87,10.98-6.87,17.58,0,10.38,0,20.76,0,31.14,0,9.04-.05,18.08,0,27.11.05,8.46,4.55,16.34,11.85,20.63,3.73,2.2,8,3.29,12.32,3.32,1.06,0,2.12,0,3.19,0,11.58,0,23.15,0,34.73,0h2.91c.51,0,1.55-.77.58-.77Z"/>
  <path class="st0" d="M113.73,20.94c.49,33.44.49,70.95,0,104.39-.49-33.44-.49-70.95,0-104.39h0Z"/>
  <path class="st0" d="M153.34,63.41c1.11,1.86,2.28,2.8,3.51,2.8v.11h-3.4c-.81,0-1.6-.15-2.39-.45-.79-.3-1.49-.98-2.1-2.03l-12.2-20.99-7.6,7.96v11.45c0,1.37-.32,2.39-.95,3.06-.63.67-1.85,1-3.65,1h-2.13v-.11c.84,0,1.46-.16,1.84-.47.38-.32.62-.72.72-1.21.1-.49.14-1.23.14-2.22V27.6c0-1.12-.2-1.97-.6-2.53-.4-.56-1.1-.84-2.1-.84v-.11h9.44v.11c-1,0-1.7.28-2.1.84-.4.56-.6,1.41-.6,2.53v21.57l20.66-21.73c1.23-1.34,1.84-2.23,1.84-2.69,0-.35-.29-.53-.86-.53v-.11h5.76v.11c-.77.07-1.4.19-1.9.37-.5.18-1,.47-1.5.9l-13.58,14.35,13.76,23.58Z"/>
  <path class="st0" d="M196.97,64.47c.65,1.16,1.55,1.74,2.7,1.74v.11h-8.86v-.11c.61,0,1.05-.1,1.32-.29.27-.19.4-.52.4-.98,0-.6-.19-1.35-.58-2.27l-3.05-8.63-20.6.51-3.05,8.12-.06.11-.12.37c-.19.49-.29.98-.29,1.48,0,.53.14.92.43,1.19s.68.4,1.18.4v.11h-5.76v-.11c.77,0,1.38-.22,1.84-.66.46-.44.86-1.05,1.21-1.82l13.99-36.87c.08-.21.12-.47.12-.79,0-.6-.24-1.06-.72-1.37-.48-.32-1.14-.47-1.99-.47v-.11h6.56l15.31,40.35ZM178.61,27.44l-9.9,26.06h19.8l-9.55-25.16-.35-.9Z"/>
  <path class="st0" d="M209.86,62.25c0,1.37-.32,2.39-.95,3.06-.63.67-1.85,1-3.65,1h-2.13v-.11c.84,0,1.46-.16,1.84-.47.38-.32.62-.72.72-1.21.1-.49.14-1.23.14-2.22V27.6c0-1.12-.2-1.97-.6-2.53-.4-.56-1.1-.84-2.1-.84v-.11h6.73v38.13Z"/>
  <path class="st0" d="M242.9,58.56l-2.3,7.75-26.25-.51,19.8-38.98c.58-.37,1.32-1.09,2.24-1.66h-15.89c-1.46,0-2.63.28-3.51.84-.88.56-1.57,1.31-2.07,2.24-.5.93-1,2.14-1.5,3.61h-.12l2.3-7.75h26.59v.11c-.65.04-1.19.19-1.61.47-.42.28-.81.69-1.15,1.21l-20.26,39.35h16.52c1.46,0,2.63-.28,3.51-.84.88-.56,1.57-1.31,2.07-2.24.5-.93,1-2.14,1.5-3.61h.12Z"/>
  <path class="st0" d="M149.74,112.06l-2.3,7.75h-24.81v-.11c.84,0,1.46-.16,1.84-.47.38-.32.62-.72.72-1.21.1-.49.14-1.23.14-2.22v-34.71c0-1.12-.2-1.97-.6-2.53-.4-.56-1.1-.84-2.1-.84v-.11h6.73v38.13c0,1.41-.31,2.41-.92,3.01h14.1c1.46,0,2.63-.28,3.51-.84.88-.56,1.57-1.31,2.07-2.24.5-.93,1-2.14,1.5-3.61h.12Z"/>
  <path class="st0" d="M188.36,117.97c.65,1.16,1.55,1.74,2.7,1.74v.11h-8.86v-.11c.61,0,1.05-.1,1.32-.29.27-.19.4-.52.4-.98,0-.6-.19-1.35-.58-2.27l-3.05-8.12h-20.6l-3.05,8.12-.06.11-.12.37c-.19.49-.29.98-.29,1.48,0,.53.14.92.43,1.19.29.26.68.4,1.18.4v.11h-5.76v-.11c.77,0,1.38-.22,1.84-.66.46-.44.86-1.05,1.21-1.82l13.99-36.87c.08-.21.12-.47.12-.79,0-.6-.24-1.06-.72-1.37-.48-.32-1.14-.47-1.99-.47v-.11h6.56l15.31,40.35ZM170,80.94l-9.9,26.06h19.8l-9.55-25.16-.35-.9Z"/>
</svg>